<?xml version="1.0" encoding="UTF-8"?>
<svg xmlns="http://www.w3.org/2000/svg" viewBox="0 0 48 48" shape-rendering="crispEdges">
  <!-- Monitor body -->
  <rect x="4" y="7" width="40" height="30" rx="3" ry="3" fill="#2d2d2d" stroke="#888" stroke-width="1.5"/>
  <!-- Screen — 50% gray -->
  <rect x="7" y="10" width="34" height="24" rx="1" fill="#808080"/>
  <!-- Stand -->
  <rect x="19" y="37" width="10" height="3" fill="#555"/>
  <rect x="16" y="40" width="16" height="2" rx="1" fill="#555"/>
  <!-- Happy Mac at 50% scale, centered in screen -->
  <svg x="11.25" y="13" width="25.5" height="18" viewBox="0 0 25 33" preserveAspectRatio="xMidYMid meet">
    <!-- White interior fill (follows corner cuts) -->
    <rect x="2" y="1" width="21" height="1" fill="white"/>
    <rect x="1" y="2" width="23" height="26" fill="white"/>
    <rect x="2" y="29" width="21" height="3" fill="white"/>
    <!-- Black outline and features -->
    <rect x="2" y="0" width="21" height="1" fill="black"/>
    <rect x="1" y="1" width="1" height="1" fill="black"/>
    <rect x="23" y="1" width="1" height="1" fill="black"/>
    <rect x="0" y="2" width="1" height="1" fill="black"/>
    <rect x="24" y="2" width="1" height="1" fill="black"/>
    <rect x="0" y="3" width="1" height="1" fill="black"/>
    <rect x="4" y="3" width="17" height="1" fill="black"/>
    <rect x="24" y="3" width="1" height="1" fill="black"/>
    <rect x="0" y="4" width="1" height="3" fill="black"/>
    <rect x="3" y="4" width="1" height="3" fill="black"/>
    <rect x="21" y="4" width="1" height="3" fill="black"/>
    <rect x="24" y="4" width="1" height="3" fill="black"/>
    <rect x="0" y="7" width="1" height="1" fill="black"/>
    <rect x="3" y="7" width="1" height="1" fill="black"/>
    <rect x="8" y="7" width="1" height="1" fill="black"/>
    <rect x="12" y="7" width="1" height="1" fill="black"/>
    <rect x="15" y="7" width="1" height="1" fill="black"/>
    <rect x="21" y="7" width="1" height="1" fill="black"/>
    <rect x="24" y="7" width="1" height="1" fill="black"/>
    <rect x="0" y="8" width="1" height="1" fill="black"/>
    <rect x="3" y="8" width="1" height="1" fill="black"/>
    <rect x="8" y="8" width="1" height="1" fill="black"/>
    <rect x="12" y="8" width="1" height="1" fill="black"/>
    <rect x="15" y="8" width="1" height="1" fill="black"/>
    <rect x="21" y="8" width="1" height="1" fill="black"/>
    <rect x="24" y="8" width="1" height="1" fill="black"/>
    <rect x="0" y="9" width="1" height="3" fill="black"/>
    <rect x="3" y="9" width="1" height="3" fill="black"/>
    <rect x="12" y="9" width="1" height="3" fill="black"/>
    <rect x="21" y="9" width="1" height="3" fill="black"/>
    <rect x="24" y="9" width="1" height="3" fill="black"/>
    <rect x="0" y="12" width="1" height="1" fill="black"/>
    <rect x="3" y="12" width="1" height="1" fill="black"/>
    <rect x="11" y="12" width="2" height="1" fill="black"/>
    <rect x="21" y="12" width="1" height="1" fill="black"/>
    <rect x="24" y="12" width="1" height="1" fill="black"/>
    <rect x="0" y="13" width="1" height="1" fill="black"/>
    <rect x="3" y="13" width="1" height="1" fill="black"/>
    <rect x="21" y="13" width="1" height="1" fill="black"/>
    <rect x="24" y="13" width="1" height="1" fill="black"/>
    <rect x="0" y="14" width="1" height="1" fill="black"/>
    <rect x="3" y="14" width="1" height="1" fill="black"/>
    <rect x="9" y="14" width="1" height="1" fill="black"/>
    <rect x="14" y="14" width="1" height="1" fill="black"/>
    <rect x="21" y="14" width="1" height="1" fill="black"/>
    <rect x="24" y="14" width="1" height="1" fill="black"/>
    <rect x="0" y="15" width="1" height="1" fill="black"/>
    <rect x="3" y="15" width="1" height="1" fill="black"/>
    <rect x="10" y="15" width="4" height="1" fill="black"/>
    <rect x="21" y="15" width="1" height="1" fill="black"/>
    <rect x="24" y="15" width="1" height="1" fill="black"/>
    <rect x="0" y="16" width="1" height="2" fill="black"/>
    <rect x="3" y="16" width="1" height="2" fill="black"/>
    <rect x="21" y="16" width="1" height="2" fill="black"/>
    <rect x="24" y="16" width="1" height="2" fill="black"/>
    <rect x="0" y="18" width="1" height="1" fill="black"/>
    <rect x="4" y="18" width="17" height="1" fill="black"/>
    <rect x="24" y="18" width="1" height="1" fill="black"/>
    <rect x="0" y="19" width="1" height="4" fill="black"/>
    <rect x="24" y="19" width="1" height="4" fill="black"/>
    <rect x="0" y="23" width="1" height="1" fill="black"/>
    <rect x="14" y="23" width="6" height="1" fill="black"/>
    <rect x="24" y="23" width="1" height="1" fill="black"/>
    <rect x="0" y="24" width="1" height="1" fill="black"/>
    <rect x="3" y="24" width="2" height="1" fill="black"/>
    <rect x="24" y="24" width="1" height="1" fill="black"/>
    <rect x="0" y="25" width="1" height="3" fill="black"/>
    <rect x="24" y="25" width="1" height="3" fill="black"/>
    <rect x="1" y="28" width="23" height="1" fill="black"/>
    <rect x="1" y="29" width="1" height="3" fill="black"/>
    <rect x="23" y="29" width="1" height="3" fill="black"/>
    <rect x="1" y="32" width="23" height="1" fill="black"/>
  </svg>
</svg>
