<?xml version="1.0" encoding="UTF-8"?>
<svg xmlns="http://www.w3.org/2000/svg" viewBox="0 0 48 48">
  <rect x="4" y="7" width="40" height="30" rx="3" ry="3" fill="#2d2d2d" stroke="#888" stroke-width="1.5"/>
  <rect x="7" y="10" width="34" height="24" rx="1" fill="#1a3a5c"/>
  <rect x="19" y="37" width="10" height="3" fill="#555"/>
  <rect x="16" y="40" width="16" height="2" rx="1" fill="#555"/>
  <rect x="20.25" y="10.0" width="1.5" height="1.5" fill="#ccc"/>
  <rect x="21.75" y="10.0" width="1.5" height="1.5" fill="#ccc"/>
  <rect x="18.75" y="11.5" width="1.5" height="1.5" fill="#ccc"/>
  <rect x="23.25" y="11.5" width="1.5" height="1.5" fill="#ccc"/>
  <rect x="18.75" y="13.0" width="1.5" height="1.5" fill="#ccc"/>
  <rect x="23.25" y="13.0" width="1.5" height="1.5" fill="#ccc"/>
  <rect x="18.75" y="14.5" width="1.5" height="1.5" fill="#ccc"/>
  <rect x="23.25" y="14.5" width="1.5" height="1.5" fill="#ccc"/>
  <rect x="18.75" y="16.0" width="1.5" height="1.5" fill="#ccc"/>
  <rect x="23.25" y="16.0" width="1.5" height="1.5" fill="#ccc"/>
  <rect x="24.75" y="16.0" width="1.5" height="1.5" fill="#ccc"/>
  <rect x="26.25" y="16.0" width="1.5" height="1.5" fill="#ccc"/>
  <rect x="27.75" y="16.0" width="1.5" height="1.5" fill="#ccc"/>
  <rect x="29.25" y="16.0" width="1.5" height="1.5" fill="#ccc"/>
  <rect x="18.75" y="17.5" width="1.5" height="1.5" fill="#ccc"/>
  <rect x="23.25" y="17.5" width="1.5" height="1.5" fill="#ccc"/>
  <rect x="27.75" y="17.5" width="1.5" height="1.5" fill="#ccc"/>
  <rect x="30.75" y="17.5" width="1.5" height="1.5" fill="#ccc"/>
  <rect x="32.25" y="17.5" width="1.5" height="1.5" fill="#ccc"/>
  <rect x="14.25" y="19.0" width="1.5" height="1.5" fill="#ccc"/>
  <rect x="15.75" y="19.0" width="1.5" height="1.5" fill="#ccc"/>
  <rect x="18.75" y="19.0" width="1.5" height="1.5" fill="#ccc"/>
  <rect x="23.25" y="19.0" width="1.5" height="1.5" fill="#ccc"/>
  <rect x="27.75" y="19.0" width="1.5" height="1.5" fill="#ccc"/>
  <rect x="30.75" y="19.0" width="1.5" height="1.5" fill="#ccc"/>
  <rect x="33.75" y="19.0" width="1.5" height="1.5" fill="#ccc"/>
  <rect x="12.75" y="20.5" width="1.5" height="1.5" fill="#ccc"/>
  <rect x="17.25" y="20.5" width="1.5" height="1.5" fill="#ccc"/>
  <rect x="18.75" y="20.5" width="1.5" height="1.5" fill="#ccc"/>
  <rect x="33.75" y="20.5" width="1.5" height="1.5" fill="#ccc"/>
  <rect x="12.75" y="22.0" width="1.5" height="1.5" fill="#ccc"/>
  <rect x="18.75" y="22.0" width="1.5" height="1.5" fill="#ccc"/>
  <rect x="33.75" y="22.0" width="1.5" height="1.5" fill="#ccc"/>
  <rect x="14.25" y="23.5" width="1.5" height="1.5" fill="#ccc"/>
  <rect x="23.25" y="23.5" width="1.5" height="1.5" fill="#ccc"/>
  <rect x="26.25" y="23.5" width="1.5" height="1.5" fill="#ccc"/>
  <rect x="29.25" y="23.5" width="1.5" height="1.5" fill="#ccc"/>
  <rect x="33.75" y="23.5" width="1.5" height="1.5" fill="#ccc"/>
  <rect x="15.75" y="25.0" width="1.5" height="1.5" fill="#ccc"/>
  <rect x="23.25" y="25.0" width="1.5" height="1.5" fill="#ccc"/>
  <rect x="26.25" y="25.0" width="1.5" height="1.5" fill="#ccc"/>
  <rect x="29.25" y="25.0" width="1.5" height="1.5" fill="#ccc"/>
  <rect x="33.75" y="25.0" width="1.5" height="1.5" fill="#ccc"/>
  <rect x="15.75" y="26.5" width="1.5" height="1.5" fill="#ccc"/>
  <rect x="23.25" y="26.5" width="1.5" height="1.5" fill="#ccc"/>
  <rect x="26.25" y="26.5" width="1.5" height="1.5" fill="#ccc"/>
  <rect x="29.25" y="26.5" width="1.5" height="1.5" fill="#ccc"/>
  <rect x="32.25" y="26.5" width="1.5" height="1.5" fill="#ccc"/>
  <rect x="17.25" y="28.0" width="1.5" height="1.5" fill="#ccc"/>
  <rect x="23.25" y="28.0" width="1.5" height="1.5" fill="#ccc"/>
  <rect x="26.25" y="28.0" width="1.5" height="1.5" fill="#ccc"/>
  <rect x="29.25" y="28.0" width="1.5" height="1.5" fill="#ccc"/>
  <rect x="32.25" y="28.0" width="1.5" height="1.5" fill="#ccc"/>
  <rect x="18.75" y="29.5" width="1.5" height="1.5" fill="#ccc"/>
  <rect x="30.75" y="29.5" width="1.5" height="1.5" fill="#ccc"/>
  <rect x="20.25" y="31.0" width="1.5" height="1.5" fill="#ccc"/>
  <rect x="27.75" y="31.0" width="1.5" height="1.5" fill="#ccc"/>
  <rect x="30.75" y="31.0" width="1.5" height="1.5" fill="#ccc"/>
  <rect x="20.25" y="32.5" width="1.5" height="1.5" fill="#ccc"/>
  <rect x="21.75" y="32.5" width="1.5" height="1.5" fill="#ccc"/>
  <rect x="23.25" y="32.5" width="1.5" height="1.5" fill="#ccc"/>
  <rect x="24.75" y="32.5" width="1.5" height="1.5" fill="#ccc"/>
  <rect x="26.25" y="32.5" width="1.5" height="1.5" fill="#ccc"/>
  <rect x="29.25" y="32.5" width="1.5" height="1.5" fill="#ccc"/>
  <rect x="30.75" y="32.5" width="1.5" height="1.5" fill="#ccc"/>
</svg>
